<svg version="1.1" xmlns="http://www.w3.org/2000/svg" viewBox="0 0 799 799" width="799" height="799"><defs><clipPath id="source-alpha-boundary-clip" clipPathUnits="userSpaceOnUse"><path d="M167 8H182V9H167ZM163 9H186V10H163ZM161 10H189V11H161ZM159 11H191V12H159ZM157 12H192V13H157ZM156 13H193V14H156ZM155 14H194V15H155ZM154 15H195V16H154ZM153 16H196V17H153ZM152 17H197V18H152ZM151 18H197V19H151ZM151 19H198V20H151ZM150 20H198V21H150ZM150 21H199V22H150ZM149 22H199V23H149ZM149 23H200V24H149ZM148 24H200V26H148ZM147 26H200V27H147ZM147 27H201V28H147ZM146 28H201V30H146ZM146 30H202V32H146ZM145 32H202V34H145ZM145 34H203V35H145ZM360 37H374V38H360ZM144 35H203V39H144ZM355 38H380V39H355ZM144 39H216V40H144ZM352 39H385V40H352ZM143 40H220V41H143ZM350 40H389V41H350ZM143 41H223V42H143ZM348 41H394V42H348ZM143 42H225V43H143ZM347 42H397V43H347ZM143 43H227V44H143ZM346 43H400V44H346ZM143 44H228V45H143ZM345 44H402V45H345ZM143 45H229V46H143ZM344 45H404V46H344ZM143 46H230V47H143ZM343 46H405V47H343ZM143 47H231V48H143ZM342 47H406V48H342ZM143 48H232V49H143ZM341 48H407V49H341ZM143 49H233V50H143ZM340 49H408V50H340ZM143 50H234V51H143ZM339 50H409V51H339ZM338 51H410V52H338ZM143 51H235V53H143ZM338 52H411V53H338ZM337 53H411V54H337ZM143 53H236V55H143ZM336 54H412V56H336ZM143 55H237V58H143ZM335 56H413V58H335ZM143 58H238V60H143ZM334 58H413V60H334ZM142 60H238V61H142ZM138 61H239V62H138ZM333 60H414V63H333ZM136 62H250V63H136ZM135 63H255V64H135ZM134 64H275V65H134ZM332 63H415V66H332ZM133 65H280V66H133ZM132 66H283V67H132ZM131 67H285V68H131ZM331 66H415V69H331ZM130 68H287V69H130ZM130 69H289V70H130ZM129 70H290V71H129ZM129 71H292V72H129ZM128 72H293V73H128ZM126 73H294V74H126ZM124 74H295V75H124ZM122 75H296V76H122ZM120 76H296V77H120ZM119 77H297V78H119ZM331 69H416V79H331ZM117 78H298V79H117ZM116 79H298V80H116ZM115 80H299V81H115ZM330 79H416V82H330ZM114 81H300V82H114ZM113 82H416V83H113ZM112 83H416V85H112ZM111 85H416V87H111ZM110 87H416V88H110ZM110 88H428V89H110ZM109 89H443V90H109ZM109 90H460V91H109ZM108 91H480V92H108ZM108 92H503V93H108ZM108 93H528V94H108ZM107 94H550V95H107ZM107 95H560V96H107ZM107 96H578V97H107ZM107 97H582V98H107ZM107 98H584V99H107ZM106 99H586V100H106ZM106 100H587V101H106ZM106 101H589V102H106ZM106 102H590V103H106ZM106 103H591V104H106ZM106 104H592V105H106ZM106 105H593V106H106ZM106 106H594V107H106ZM106 107H595V108H106ZM106 108H596V109H106ZM106 109H597V110H106ZM106 110H598V111H106ZM106 111H599V112H106ZM106 112H600V113H106ZM106 113H601V114H106ZM107 114H602V115H107ZM107 115H603V116H107ZM107 116H604V117H107ZM107 117H605V118H107ZM108 118H606V119H108ZM108 119H607V121H108ZM109 121H608V122H109ZM109 122H609V123H109ZM110 123H610V124H110ZM110 124H611V125H110ZM111 125H612V126H111ZM112 126H613V127H112ZM113 127H614V128H113ZM113 128H615V129H113ZM114 129H616V130H114ZM115 130H617V131H115ZM117 131H618V132H117ZM118 132H618V133H118ZM120 133H619V134H120ZM121 134H620V135H121ZM121 135H621V136H121ZM121 136H622V137H121ZM121 137H623V138H121ZM121 138H624V140H121ZM121 140H625V141H121ZM121 141H626V142H121ZM121 142H627V143H121ZM121 143H628V145H121ZM121 145H629V146H121ZM121 146H630V147H121ZM121 147H631V148H121ZM121 148H632V149H121ZM121 149H633V151H121ZM121 151H634V152H121ZM121 152H635V153H121ZM121 153H636V155H121ZM121 155H637V156H121ZM121 156H638V157H121ZM121 157H639V158H121ZM121 158H640V160H121ZM121 160H641V161H121ZM121 161H642V162H121ZM121 162H643V164H121ZM121 164H644V165H121ZM121 165H645V166H121ZM121 166H646V167H121ZM121 167H647V169H121ZM121 169H648V170H121ZM121 170H649V171H121ZM121 171H650V172H121ZM122 172H651V173H122ZM122 173H652V175H122ZM123 175H653V176H123ZM123 176H654V177H123ZM123 177H655V178H123ZM124 178H656V180H124ZM125 180H657V181H125ZM126 181H658V182H126ZM126 182H659V184H126ZM126 184H660V185H126ZM126 185H661V186H126ZM126 186H662V187H126ZM125 187H663V189H125ZM125 189H664V190H125ZM125 190H665V191H125ZM125 191H666V192H125ZM125 192H667V193H125ZM125 193H668V194H125ZM124 194H668V195H124ZM124 195H669V196H124ZM124 196H670V197H124ZM124 197H671V199H124ZM124 199H672V200H124ZM124 200H673V201H124ZM123 201H674V202H123ZM123 202H675V204H123ZM123 204H676V205H123ZM123 205H677V206H123ZM123 206H678V208H123ZM123 208H679V209H123ZM123 209H680V211H123ZM122 211H681V212H122ZM122 212H682V214H122ZM122 214H683V215H122ZM122 215H684V217H122ZM122 217H685V218H122ZM122 218H686V220H122ZM122 220H687V221H122ZM122 221H688V223H122ZM122 223H689V224H122ZM121 224H689V225H121ZM121 225H690V226H121ZM121 226H691V228H121ZM121 228H692V230H121ZM121 230H693V232H121ZM121 232H694V234H121ZM121 234H695V236H121ZM121 236H696V238H121ZM121 238H697V240H121ZM121 240H698V242H121ZM121 242H699V246H121ZM121 246H700V249H121ZM121 249H701V253H121ZM121 253H702V258H121ZM122 258H702V271H122ZM122 271H701V274H122ZM122 274H700V278H122ZM122 278H699V280H122ZM122 280H698V282H122ZM122 282H697V284H122ZM122 284H696V286H122ZM122 286H695V287H122ZM122 287H694V289H122ZM122 289H693V291H122ZM122 291H692V292H122ZM122 292H691V294H122ZM122 294H690V296H122ZM122 296H689V297H122ZM122 297H688V299H122ZM122 299H687V301H122ZM122 301H686V302H122ZM122 302H685V303H122ZM122 303H684V305H122ZM122 305H683V306H122ZM122 306H682V308H122ZM122 308H681V309H122ZM122 309H680V310H122ZM122 310H679V312H122ZM122 312H678V313H122ZM122 313H677V314H122ZM122 314H676V316H122ZM122 316H675V317H122ZM122 317H674V319H122ZM122 319H673V320H122ZM122 320H672V321H122ZM122 321H671V323H122ZM122 323H670V324H122ZM122 324H669V325H122ZM122 325H668V326H122ZM122 326H667V328H122ZM122 328H666V329H122ZM122 329H665V330H122ZM122 330H664V332H122ZM122 332H663V333H122ZM122 333H662V334H122ZM122 334H661V335H122ZM122 335H660V337H122ZM122 337H659V338H122ZM122 338H658V339H122ZM122 339H657V340H122ZM122 340H656V341H122ZM122 341H655V343H122ZM122 343H654V344H122ZM122 344H653V345H122ZM122 345H652V347H122ZM122 347H651V348H122ZM122 348H650V349H122ZM122 349H649V350H122ZM122 350H648V352H122ZM122 352H647V353H122ZM122 353H646V354H122ZM122 354H645V356H122ZM122 356H644V357H122ZM122 357H643V358H122ZM122 358H642V359H122ZM122 359H641V360H122ZM122 360H640V361H122ZM122 361H639V363H122ZM122 363H638V364H122ZM122 364H637V365H122ZM123 365H636V367H123ZM123 367H635V368H123ZM124 368H634V369H124ZM124 369H633V370H124ZM124 370H632V371H124ZM124 371H631V372H124ZM125 372H631V373H125ZM125 373H630V374H125ZM126 374H629V375H126ZM126 375H628V376H126ZM127 376H627V377H127ZM128 377H627V378H128ZM128 378H626V379H128ZM129 379H625V380H129ZM130 380H624V381H130ZM131 381H623V382H131ZM132 382H622V383H132ZM133 383H622V384H133ZM134 384H622V385H134ZM135 385H622V386H135ZM137 386H622V387H137ZM138 387H622V388H138ZM140 388H622V389H140ZM143 389H622V390H143ZM145 390H621V391H145ZM148 391H621V392H148ZM151 392H621V393H151ZM155 393H621V394H155ZM159 394H620V395H159ZM164 395H620V396H164ZM170 396H620V397H170ZM176 397H619V398H176ZM185 398H619V399H185ZM198 399H618V400H198ZM203 400H617V401H203ZM203 401H615V402H203ZM311 402H614V403H311ZM203 402H285V404H203ZM337 403H611V404H337ZM352 404H608V405H352ZM352 405H602V406H352ZM461 406H594V407H461ZM352 406H409V408H352ZM511 407H593V408H511ZM513 408H593V409H513ZM514 409H593V410H514ZM516 410H592V411H516ZM352 408H410V412H352ZM518 411H592V412H518ZM521 412H592V413H521ZM524 413H592V414H524ZM528 414H592V415H528ZM533 415H592V416H533ZM538 416H592V417H538ZM541 417H592V418H541ZM543 418H591V419H543ZM544 419H591V420H544ZM545 420H591V422H545ZM546 422H591V423H546ZM353 412H410V426H353ZM546 423H590V426H546ZM546 426H589V427H546ZM353 426H411V428H353ZM547 427H589V429H547ZM547 429H588V430H547ZM548 430H588V431H548ZM548 431H587V433H548ZM549 433H586V434H549ZM549 434H585V435H549ZM550 435H585V436H550ZM551 436H584V437H551ZM552 437H582V438H552ZM553 438H580V439H553ZM555 439H578V440H555ZM558 440H575V441H558ZM354 428H411V442H354ZM562 441H571V442H562ZM354 442H412V445H354ZM355 445H412V450H355ZM355 450H413V457H355ZM203 404H286V462H203ZM355 457H414V462H355ZM203 462H285V463H203ZM356 462H414V464H356ZM202 463H285V469H202ZM356 464H415V472H356ZM202 469H284V472H202ZM202 472H283V475H202ZM202 475H282V477H202ZM356 472H416V479H356ZM202 477H281V479H202ZM202 479H280V480H202ZM357 479H416V480H357ZM202 480H279V481H202ZM202 481H278V482H202ZM202 482H277V483H202ZM202 483H276V484H202ZM202 484H274V485H202ZM202 485H272V486H202ZM202 486H270V487H202ZM357 480H417V488H357ZM256 487H266V488H256ZM357 488H418V495H357ZM358 495H418V497H358ZM358 497H419V507H358ZM358 507H420V511H358ZM359 511H420V515H359ZM359 515H421V524H359ZM202 487H254V526H202ZM359 524H422V526H359ZM360 526H422V534H360ZM202 526H253V535H202ZM202 535H252V536H202ZM203 536H252V539H203ZM360 534H423V542H360ZM203 539H251V542H203ZM361 542H423V543H361ZM204 542H250V544H204ZM204 544H249V545H204ZM205 545H249V546H205ZM205 546H248V548H205ZM206 548H247V550H206ZM207 550H246V551H207ZM361 543H424V552H361ZM208 551H245V552H208ZM209 552H244V553H209ZM210 553H243V554H210ZM211 554H241V555H211ZM213 555H239V556H213ZM215 556H237V557H215ZM219 557H233V558H219ZM361 552H425V561H361ZM362 561H426V567H362ZM362 567H427V573H362ZM362 573H428V579H362ZM362 579H429V583H362ZM363 583H429V585H363ZM363 585H430V589H363ZM363 589H431V595H363ZM363 595H432V600H363ZM363 600H433V605H363ZM363 605H434V609H363ZM364 609H434V610H364ZM364 610H435V616H364ZM364 616H436V621H364ZM364 621H437V627H364ZM364 627H438V634H364ZM364 634H439V637H364ZM364 637H440V647H364ZM365 647H440V652H365ZM365 652H441V659H365ZM365 659H442V668H365ZM365 668H443V679H365ZM365 679H444V696H365ZM365 696H445V706H365ZM366 706H445V732H366ZM366 732H444V733H366ZM367 733H444V750H367ZM368 750H444V754H368ZM368 754H443V758H368ZM369 758H443V761H369ZM369 761H442V764H369ZM370 764H442V765H370ZM370 765H441V767H370ZM371 767H441V768H371ZM371 768H440V770H371ZM372 770H440V771H372ZM372 771H439V772H372ZM373 772H439V773H373ZM373 773H438V774H373ZM374 774H437V776H374ZM375 776H436V777H375ZM375 777H435V778H375ZM376 778H434V779H376ZM377 779H433V780H377ZM378 780H431V781H378ZM379 781H430V782H379ZM380 782H428V783H380ZM382 783H426V784H382ZM384 784H423V785H384ZM387 785H420V786H387ZM393 786H415V787H393Z" /></clipPath></defs><g data-alpha-boundary-clip="true" clip-path="url(#source-alpha-boundary-clip)">
<path d="M0 0c264 0 527 0 799 0 0 264 0 527 0 799-264 0-527 0-799 0 0-264 0-527 0-799Z" fill="none" transform="translate(0,0)"/>
<path data-fill-layer-id="vtracer-fill-1-6d2449" d="M0 0c8 6 11 15 12 24 0 1 0 3 0 4 1 0 2 0 2 0 11 0 19 1 26 8 4 4 6 8 8 14 9 1 17 2 26 2 11 1 21 3 29 10 1 1 2 3 2 4 3 3 4 4 7 5 4 0 8 0 12 0 2 0 3 0 5 0 3 0 7 0 10 0 0-1 0-2 0-3 1-15 4-25 15-35 7-6 15-8 25-7 5 0 11 1 16 2 1 0 2 1 3 1 10 2 17 5 23 14 4 8 4 16 4 25 0 1 0 2 0 3 0 2 0 4 0 6 2 0 3 0 5 0 8 0 17 1 26 1 26 2 52 3 78 4 14 0 27 1 41 2 0 0 0 0 3 0 8 1 16 2 22 8 0 0 0 0 2 2 1 1 2 2 3 3 0 0 0 0 3 3 4 4 9 9 13 14 2 2 5 5 7 7 6 7 11 13 16 20 1 2 3 3 4 5 0 0 1 1 2 2 6 8 12 15 18 23 3 3 5 7 8 10 1 1 2 2 3 4 18 22 34 45 32 75-4 26-32 54-48 73-4 5-7 9-10 13-4 4-7 9-11 13-2 3-5 6-7 9-1 1-2 2-3 3 0 2-1 4-1 6-1 8-1 8-4 12-5 3-10 5-16 6-1 0-3 0-5 0 0 1 0 1-3 1 0 1 0 3-1 4-4 22-4 22-10 27-9 4-17 5-26 3-5-2-6-3-9-8-1-3-2-7-3-10-1-3-1-3-4-5-5-2-10-3-16-4-3-1-5-2-9-4-5-2-10-3-15-3-1 0-2 0-4 0-3 0-6 0-9 0-3 0-5 0-7 0-6 0-12 0-18 0-6 0-12 0-18-1-12 0-24 0-36 0 0 1 1 1 1 2 0 2 0 4 0 6 1 19 3 38 6 57 2 18 4 37 6 55 3 23 6 46 10 70 1 4 2 9 3 14 0 1 0 1 0 2 1 3 1 5 1 7 1 3 1 6 2 9 0 1 0 2 0 3 1 3 1 3 2 6 0 3 1 7 1 10 0 2 0 4 0 6 1 1 1 2 1 3 0 6 1 12 2 18 1 13 1 26 1 40 0 1 0 3 0 4 0 50 0 50-11 61-9 7-19 8-30 8-1 0-2 0-3 0-8 0-16 0-23-6-12-14-11-33-12-50 0-1 0-2 0-3-1-17-1-33-1-50-1-20-1-40-2-59 0-3 0-5 0-8-1-48-5-97-8-145 0-9-1-18-1-27-1-3-1-7-1-10 0-2 0-4 0-7 0 0-1-1-1-2 0-6 0-11 0-16-1 0-2 0-2 0-14 0-27 0-40-1-2 0-5 0-7 0-6-1-12-1-18-1 0 1 1 1 1 2 0 2 0 4 0 5 0 2 0 3 0 4 0 0 0 0 0 4 0 1 0 2 0 3 0 3 0 6 0 8 0 4 0 9 0 13 0 2 0 5 0 7 0 2 0 3 0 4 0 11-1 22-9 31-7 5-13 5-21 5-1 0-1-1-2-1 0 1 0 2 0 3 0 5 0 9 0 13 0 2 0 4 0 5 0 28 0 28-5 38 0 1-1 1-1 2-4 6-9 8-15 10-8 1-15 1-22-3-7-6-9-13-9-22 0-4 0-8 0-12 0-1 0-3 0-4 0-5 0-10 0-14 0-3 0-5 0-8 0-31 0-63 1-95 0 0 0 0-2 0-28-2-28-2-38-4-1-1-2-1-3-1-15-3-26-7-35-20-3-6-3-13-3-20 0-1 0-2 0-3 0-3 0-7 0-10 0-2 0-5 0-7-1-6-1-12-1-18 0-6 0-12 0-18 0-12 0-23 0-35 0-5 0-9 0-14 0-4 0-8 0-11 0-2 0-3 0-4 0-12 1-23 2-34 0-1 0-3 1-4 0-2 0-4 0-6 1-7 1-10-2-16-1-4-1-8-1-12 0-1 0-2 0-3 0-3 0-6 0-10 0-2 0-5 0-8 0-1 0-3 0-4-1-4-1-4-4-7-1 0-1 0-4-2-7-10-8-18-7-30 1-8 5-16 12-21 2-2 5-3 7-4 4-2 5-5 7-8 3-3 5-5 10-6 0-1 0-1 0-4 1-15 2-31 13-42 11-8 25-9 36-3Z" fill="#6D2449" transform="translate(191,11)" />
<path data-fill-layer-id="vtracer-fill-2-da926d" d="M0 0c1 0 2 0 3 0 1 0 1 0 4 0 2 0 3 0 5 0 1 0 3 0 5 1 19 0 39 1 58 3 31 1 61 3 92 4 1 0 2 0 3 1 11 0 21 0 31 1 4 0 8 0 12 0 2 0 5 0 7 1 10 0 19 1 28 3 3 0 5 0 8 0 0 0 0 0 3 1 2 0 4 0 6 0 16 0 16 0 21 4 0 1 0 1 2 3 2 1 3 3 4 4 4 4 8 8 11 12 1 1 2 2 3 3 3 3 5 6 8 9 2 3 5 6 7 9 61 71 61 71 61 85-23 0-46 0-69 0-1 0-2 0-3 0-45 0-89-2-134-5-3 0-7 0-10 0-1 0-1 0-2 0-3 0-5 0-7-1-4 0-9 0-13-1 0 1 0 2-1 3 0 0-1 0-2 0 0 1 0 2 0 2-3 7-8 10-14 13-1 0-2 0-3 0 1 1 1 1 2 2 1 2 1 2 1 4 1 0 2 0 2 0 0 1 0 2 0 2 1 1 2 1 3 1 0 1 0 2 0 2 2 1 3 2 4 2 2 2 3 4 4 6 1 1 2 2 2 2 1 3 1 6 0 9 0 1 0 2 0 3 0 2 0 4 0 6-18 1-18 1-22-3-3-3-3-3-3-5 0 0-1 0-2 0-3-3-3-3-3-6 0 0-1 0-2 0 0-1-1-2-2-3 0 1 0 1 0 4 0 2 0 4 0 5 0 1 0 2 0 3 0 5 0 7-4 11-3 2-6 4-10 5-1 0-2 1-3 1-9 3-17 2-26 2-2 1-3 1-5 1-13 0-26-3-37-11-2-2-4-2-7-3 0 0 0 0-2 0-1 0-1 0-3 0-1 0-1 0-3 0-3 0-5-1-8-1 1 1 2 2 3 3 2 3 2 3 2 5 1 0 2 0 2 0 1 1 2 2 3 3 0 1 0 2 0 2 2 1 3 2 4 2 2 1 3 2 4 3 22 15 53 26 79 23 16-3 29-7 40-17 3-3 3-3 5-3 1-1 2-2 2-4 2-3 4-5 6-8 2-3 2-3 6-11 6 0 12 0 18 0 1 17-1 26-12 38-18 19-40 25-65 25-38 1-81-6-110-34 0 0 0-1 0-2 0 0-1 0-2 0-10-11-17-24-21-39 0-1 0-2-1-3-3-16-2-32-2-48-26-1-53-1-79-1-1 0-2 0-3 0-10 0-21 0-32 0 1-5 1-10 2-14 0-2 0-3 0-4 1-10 2-19 3-28 1 0 3 0 4 0 15-1 15-1 20-8 7-8 10-17 12-28 1-3 1-3 6-5 0 0 1 0 2 0 5-1 7-4 11-7 2-5 2-9 3-14 0-1 0-2 0-3 4-2 6-2 11-2 10-1 18-3 25-10 3 0 6 0 9 0 1 0 2 0 3 0 2 0 5 0 8 0 4 0 7 0 11 0 1 0 1 0 2 0 8-1 14-5 21-5Z" fill="#DA926D" transform="translate(293.6494598388672,100.82011413574219)" />
<path data-fill-layer-id="vtracer-fill-3-b6916d" d="M0 0c1 0 3 0 4 0 4 0 9 0 13 0 2 0 3 0 5 0 17 0 35 0 53 1 0 0 0 0 4 0 10 0 10 0 13 1 0 1 0 2 0 3 1 31 2 61 24 85 0 1 0 1 0 2 1 0 1 0 2 0 2 2 3 3 5 5 8 7 17 12 26 16 1 1 2 1 4 2 33 14 80 19 115 5 14-6 26-16 33-30 1-1 1-2 2-3 2-4 2-8 2-13 0-1 0-1 0-2 0-3 0-5 0-7-6 0-12 0-18 0-1 2-1 4-2 6-1 2-2 4-3 6-1 1-1 1-2 2-12 17-29 26-49 30-27 3-60-7-83-23-1-2-2-3-4-4-1-1-2-1-3-2 0-1 0-1 0-2-1 0-2-1-3-1 0-1 0-1 0-2-1 0-1 0-2 0-5-5-5-5-5-8 22 0 22 0 29 6 9 8 23 7 35 7 1 0 3 0 4 0 13 0 24-1 35-8 4-4 4-8 4-13 0-1 0-2 0-3 0-2 0-5 0-7 1 1 2 1 3 2 0 1 0 1 0 2 1 0 1 0 2 0 3 4 3 4 3 6 1 0 1 0 2 0 2 2 3 4 5 6 4 2 7 2 11 2 1 0 1 0 3 0 2 0 4 0 6 0 0-3 0-6 0-9 0 0 0-1 0-2 0-6 0-6-3-9 0-1 0-1-2-2 0 0 0 0-1-2-2-3-4-5-7-7 0-1 0-1 0-2-1 0-1 0-2 0-3-3-3-3-3-6 1 0 3-1 4-2 6-3 9-6 13-13 3-3 3-3 8-3 2 0 4 0 6 0 1 0 1 0 4 0 4 1 8 1 12 1 3 0 6 0 9 1 2 0 3 0 5 0 0 0 0 0 2 0 3 0 5 0 8 0 44 3 89 4 134 4 32 0 32 0 44 0 1 0 2 1 3 1 2 0 2 0 6 0 2 4 3 7 4 11 0 1 1 2 1 3 1 3 1 6 0 9-1 2-3 4-4 6 0 1 0 1-1 3-1 5-3 7-5 10-1 1-1 1-3 4 0 0 0 0-1 2-3 3-5 6-7 9-32 44-32 44-46 58 0-1 0-2 0-4 0-1 0-3 0-5 0-1 0-1 0-2 0-3 0-3-1-7-7-6-18-6-27-6-3 0-3 0-6 3-1 3-3 6-4 10-4 9-4 9-7 12-3 1-6 1-9 1-9 1-9 1-12 2-1 3-2 5-3 8-3 2-5 2-9 3 0 0 0 0-3 0-1 0-1 0-7 0 0 0 0 0-3 1-1 0-2 0-3 0-3 0-3 0-6 2-1 5-1 5-1 9-28 0-57 0-85-1-5 0-9 0-14 0-15 0-30-1-45-1 0 0 0 0-3 0-15 0-29-1-43-1-3 0-6 0-9 0-33-1-33-1-49-2-5 0-11 0-16 0-86 1-86 1-104-17-7-11-5-26-5-39 0-1 0-2 0-3 0-18 0-35 1-53 0-13 0-27 0-41 7-1 15-1 22-1Z" fill="#B6916D" transform="translate(162.91796875,227.8671875)" />
<path data-fill-layer-id="vtracer-fill-4-fedab5" d="M0 0c8 6 11 15 12 24 0 1 0 3 0 4 1 0 2 0 2 0 11 0 19 1 26 8 4 4 6 8 8 14 9 1 17 2 26 2 11 1 21 3 29 10 1 1 2 3 2 4 3 3 4 4 7 5 4 0 8 0 12 0 2 0 3 0 5 0 3 0 7 0 10 0 0-1 0-2 0-3 1-15 4-25 15-35 7-6 15-8 25-7 5 0 11 1 16 2 1 0 2 1 3 1 10 2 17 5 23 14 4 8 4 16 4 25 0 1 0 2 0 3 0 2 0 4 0 6 2 0 3 0 5 0 8 0 17 1 26 1 26 2 52 3 78 4 14 0 27 1 41 2 0 0 0 0 3 0 8 1 16 2 22 8 0 0 0 0 2 2 1 1 2 2 3 3 0 0 0 0 3 3 4 4 9 9 13 14 2 2 5 5 7 7 6 7 11 13 16 20 1 2 3 3 4 5 0 0 1 1 2 2 6 8 12 15 18 23 3 3 5 7 8 10 1 1 2 2 3 4 18 22 34 45 32 75-4 26-32 54-48 73-4 5-7 9-10 13-4 4-7 9-11 13-2 3-5 6-7 9-1 1-2 2-3 3 0 2-1 4-1 6-1 8-1 8-4 12-5 3-10 5-16 6-1 0-3 0-5 0 0 1 0 1-3 1 0 1 0 3-1 4-4 22-4 22-10 27-9 4-17 5-26 3-5-2-6-3-9-8-1-3-2-7-3-10-1-3-1-3-4-5-5-2-10-3-16-4-3-1-5-2-9-4-5-2-10-3-15-3-1 0-2 0-4 0-3 0-6 0-9 0-3 0-5 0-7 0-6 0-12 0-18 0-6 0-12 0-18-1-12 0-24 0-36 0 0 1 1 1 1 2 0 2 0 4 0 6 1 19 3 38 6 57 2 18 4 37 6 55 3 23 6 46 10 70 1 4 2 9 3 14 0 1 0 1 0 2 1 3 1 5 1 7 1 3 1 6 2 9 0 1 0 2 0 3 1 3 1 3 2 6 0 3 1 7 1 10 0 2 0 4 0 6 1 1 1 2 1 3 0 6 1 12 2 18 1 13 1 26 1 40 0 1 0 3 0 4 0 50 0 50-11 61-9 7-19 8-30 8-1 0-2 0-3 0-8 0-16 0-23-6-12-14-11-33-12-50 0-1 0-2 0-3-1-17-1-33-1-50-1-20-1-40-2-59 0-3 0-5 0-8-1-48-5-97-8-145 0-9-1-18-1-27-1-3-1-7-1-10 0-2 0-4 0-7 0 0-1-1-1-2 0-6 0-11 0-16-1 0-2 0-2 0-14 0-27 0-40-1-2 0-5 0-7 0-6-1-12-1-18-1 0 1 1 1 1 2 0 2 0 4 0 5 0 2 0 3 0 4 0 0 0 0 0 4 0 1 0 2 0 3 0 3 0 6 0 8 0 4 0 9 0 13 0 2 0 5 0 7 0 2 0 3 0 4 0 11-1 22-9 31-7 5-13 5-21 5-1 0-1-1-2-1 0 1 0 2 0 3 0 5 0 9 0 13 0 2 0 4 0 5 0 28 0 28-5 38 0 1-1 1-1 2-4 6-9 8-15 10-8 1-15 1-22-3-7-6-9-13-9-22 0-4 0-8 0-12 0-1 0-3 0-4 0-5 0-10 0-14 0-3 0-5 0-8 0-31 0-63 1-95 0 0 0 0-2 0-28-2-28-2-38-4-1-1-2-1-3-1-15-3-26-7-35-20-3-6-3-13-3-20 0-1 0-2 0-3 0-3 0-7 0-10 0-2 0-5 0-7-1-6-1-12-1-18 0-6 0-12 0-18 0-12 0-23 0-35 0-5 0-9 0-14 0-4 0-8 0-11 0-2 0-3 0-4 0-12 1-23 2-34 0-1 0-3 1-4 0-2 0-4 0-6 1-7 1-10-2-16-1-4-1-8-1-12 0-1 0-2 0-3 0-3 0-6 0-10 0-2 0-5 0-8 0-1 0-3 0-4-1-4-1-4-4-7-1 0-1 0-4-2-7-10-8-18-7-30 1-8 5-16 12-21 2-2 5-3 7-4 4-2 5-5 7-8 3-3 5-5 10-6 0-1 0-1 0-4 1-15 2-31 13-42 11-8 25-9 36-3ZM-31 10c-8 10-8 21-8 34 0 2 0 3 0 4 0 3 0 7 0 10-1 0-2 0-2 0-1 0-2 0-3 0-1 0-2 0-3 0-3 0-3 0-6 2-1 3-2 6-3 9-1 0-2 0-4 1-6 2-10 4-14 10-3 9-3 19-1 27 3 5 7 8 12 11 2 3 1 7 1 11 0 2 0 4 0 5 0 3 0 6 0 9 0 3 0 6 0 8 0 1 0 2 0 3 1 6 2 9 5 14 1 0 1 0 2 0 0 1 0 3 0 4-1 5-2 10-2 14 0 3-1 5-1 7 0 3 0 6-1 9 0 1 0 2 0 3-1 11-2 23-2 35 0 1 0 3 0 4 0 4 0 8 0 12 0 1 0 3 0 4 0 7 0 15 0 22 0 7 0 15 0 22 0 6 0 12 0 18 0 2 0 5 0 8 0 4 0 8 0 12 0 1 0 2 0 3 1 9 2 15 8 21 19 15 52 15 75 14 0 2 0 3 0 5-1 6-1 12-1 18 0 1 0 2 0 3 0 4-1 8-1 12 0 1 0 2 0 4 0 22 0 45 0 67 0 3 0 5 0 8 0 4 0 9 0 13 0 2 0 3 0 4 0 17 0 17 4 23 4 1 7 2 11 2 1 0 3 0 4 0 5-1 7-2 10-5 1-2 1-2 2-5 1 0 1-1 1-2 2-7 2-15 2-22 0-1 0-2 0-3 0-4 0-7 0-10 0-1 0-1 0-3 0-25-1-49-3-73 0-7 0-15 0-22 0-1 0-2 0-4 0-3 0-6 0-9 3 0 5 0 8 0 0 1 0 3 0 4 0 46 0 46 0 64 0 1 0 2 0 3 1 10 1 10 3 15 4 2 9 1 14 1 4-2 5-3 8-7 3-7 2-15 2-23 0-1 0-2 0-4 0-2 0-5 0-8 0-4 0-8 0-12 0-2 0-5 0-7 0-1 0-1 0-4 0-7 0-15-1-22 1 0 2 0 3 0 3 1 7 1 11 1 1 0 3 1 5 1 1 0 3 0 5 0 1 0 3 0 5 0 4 0 9 0 14 0 4 1 9 1 14 1 9 0 18 1 27 1 1 21 3 41 4 62 0 10 1 19 2 29 3 58 6 116 7 174 1 46 1 46 2 67 0 2 0 3 0 5 1 32 1 32 9 42 6 4 13 3 20 3 0 0 0 0 3 0 8 0 14-1 21-5 14-15 8-54 8-73 0-15-2-30-4-45 0-3 0-7 0-10-1-6-2-12-3-18 0-2-1-3-1-5 0-1 0-2 0-3-2-7-3-15-5-22 0-2 0-3-1-5-5-27-8-55-11-82 0-6-1-12-2-18 0-1 0-1 0-3-1-11-3-22-4-33-2-13-3-26-4-38 0-2 0-4 0-6 0-5-1-10-1-15 2 0 3 0 5 0 37 1 74 1 111 1 1 1 1 3 2 4 6 4 13 5 19 6 11 3 11 3 15 7 2 4 2 8 3 12 1 3 1 3 3 5 6 2 12 2 18 0 4-3 4-5 6-9 1-3 1-6 2-10 0-5 1-9 3-13 6-2 12-3 18-3 3-1 3-1 7-3 1-3 1-3 1-7 0-7 2-11 7-15 1-1 1-1 2-2 0-1 0-1 0-2 1 0 1 0 2 0 2-2 3-4 5-6 3-4 6-9 10-13 4-4 7-8 10-13 2-1 3-3 4-5 42-52 42-52 40-78-4-21-21-40-34-56-2-3-5-7-7-10-5-6-9-11-14-17-4-4-7-8-10-13-7-9-15-18-23-27-2-2-2-2-4-4 0-1-1-1-1-2-1 0-1 0-2 0-1-1-1-3-2-4-2-2-3-4-5-5-1-1-2-2-3-3-7-7-12-8-21-8-1 0-2 0-3 0-5-1-9-1-13-1-1 0-2 0-2 0-12-1-24-1-36-2-31-1-63-2-94-5-4 0-8 0-12 0 0-1 0-2 0-2 0-4 0-7 0-11 0-1 0-2 0-3 0-10 0-19-6-27-5-2-9-4-14-5-1 0-2 0-3 0-11-3-22-4-32 1-3 3-3 3-5 5 0 1 0 1 0 2-1 0-1 0-2 0-7 11-6 23-6 36-1 0-2 0-2 0-5-1-9-1-14-1 0 0-1 0-2 0-3 0-6 0-9-1-2 0-4 0-6 0-4 0-9 0-14 0 0-1 0-2 0-3-1-5-2-6-5-9-7-4-13-5-21-5-2-1-4-1-6-1-1 0-2 0-3 0-2 0-2 0-6-1-3 0-7 0-10 0-1 0-1 0-3 0-2 0-5 0-7 0 0-2 0-3 0-5-1-6-3-10-7-14-5-4-8-4-14-4-2 0-3 0-4 0-4 0-7 1-10 3 0-1 0-2 0-3-3-24-3-24-10-30-4-1-7-1-11-1-2 0-3 0-5 0-4 0-6 1-10 4Z" fill="#FEDAB5" transform="translate(191,11)" />
<path data-fill-layer-id="vtracer-fill-5-ffdbb6" d="M0 0c3 0 6 0 10 0 19 0 39 2 56 9 2 1 3 1 5 2 6 4 11 8 16 12 1 1 2 2 3 3 3 3 3 7 3 12 0 0 0 0 0 2 0 2 0 4-1 6-2 0-5 0-8 0-1 0-2 0-3 0-6 0-6 0-9-1 0 0 0-1 0-2-1 0-2-1-4-2 0 0-1-1-2-2-11-9-23-14-36-17-1 0-2 0-3 0-22-5-46-1-65 12-26 18-44 43-50 75-1 21 5 46 17 63 2 1 3 3 4 4 0 1 0 2 0 2 1 0 2 0 2 0 1 1 2 2 3 3 0 1 0 2 0 2 2 1 3 2 4 2 2 1 3 2 4 3 22 15 53 26 79 23 16-2 29-7 40-17 3-3 3-3 5-3 1-1 2-2 2-4 2-2 4-5 6-8 2-3 2-3 6-11 6 0 12 0 18 0 1 17-1 26-12 39-18 18-40 24-65 25-38 0-81-7-110-35 0 0 0-1 0-2 0 0-1 0-2 0-20-20-24-48-24-76 0-3 0-6 0-9 0-18 2-34 9-51 1-1 1-2 2-3 11-24 33-42 58-51 3-1 6-2 9-3 1 0 2 0 3 0 10-2 20-2 30-2Z" fill="#FFDBB6" transform="translate(365.52197265625,124.62939453125)" />
<path data-fill-layer-id="vtracer-fill-5-ffdbb6" d="M0 0c1 0 3 0 4 0 9 0 18 0 26 4 0 6 0 12 0 18-3 0-6 0-9 0-1 0-2 0-3 0-5 0-9 0-14-2-10-1-19 4-27 10-6 4-11 8-15 13 0 0 0 0-2 2 0 0-1 0-2 0 0 1 0 2 0 2-2 3-2 3-4 7-6 10-10 20-7 32 3 8 7 16 14 22 1 2 1 2 1 4 2 1 3 2 4 2 2 1 3 2 4 3 8 5 16 8 25 7 7-2 13-4 18-8 1-12 0-25-1-37 0-9-1-18-1-27 0-1 0-2 0-2 0-4 0-6 2-9 7-5 16-4 24-4 2 0 3 0 5 0 15 0 15 0 21 5 6 7 6 12 6 20 0 2 0 3 0 4 0 8-1 13-7 20-1 0-1 1-2 1-1 1-2 1-2 2-3 1-5 2-8 2 1 1 1 1 2 2 1 2 1 2 1 4 1 0 2 0 2 0 0 1 0 2 0 2 1 1 2 1 3 1 0 1 0 2 0 2 2 1 3 2 4 2 2 2 3 4 4 6 1 1 2 2 2 2 1 3 1 6 1 9-1 1-1 2-1 3 0 2 0 4 0 6-18 1-18 1-22-3-3-3-3-3-3-5 0 0-1 0-2 0-3-3-3-3-3-6 0 0-1 0-2 0 0-1-1-2-2-3 0 2 0 3 0 4 0 2 0 4 0 5 0 1 0 2 0 3 0 5 0 7-4 11-3 2-6 4-10 5-1 0-2 1-3 1-9 3-17 3-26 3-2 0-3 0-5 0-17 0-30-5-42-16-17-18-18-37-18-60 1-22 10-38 26-53 14-13 29-16 48-16Z" fill="#FFDBB6" transform="translate(367.625,164.75)" />
<path data-fill-layer-id="vtracer-fill-6-db9291" d="M0 0c0 0 0 0 2 2-6 1-6 1-9 0-4-1-7-1-10-1-2 0-3 0-5 0-1 0-3 0-4 0-2 0-3 0-5 0-4 0-7 0-11 0 0 2 0 5 0 7 5 0 5 0 28 2 3 12 3 12 3 19 0 1 0 1 0 4 0 1 0 2 0 3 4 2 9 3 13 4 10 3 16 6 22 14 4 7 4 13 4 21 0 1 0 3 0 4 0 4 0 4-1 6-2 0-4 0-6 0 0 1-1 2-1 3-1 0-1-1-2-1 0-1 0-1 0-2 0-4 0-7 0-10 0-1 0-2 0-4 0-10 0-10-3-15-8-7-17-6-27-6-1 0-1 0-4 0-14 0-14 0-20 3-2 3-1 7-1 11 0 0 0 0 0 3 0 8 0 15 1 23 0 4 1 8 1 11 0 3 0 5 0 7 1 18 1 18-2 23-3 1-5 2-8 3-1 0-2 1-2 1-10 4-17 2-26-2-6-3-11-7-16-12-1-1-1-1-2-2-7-8-12-18-13-29 1-12 6-24 13-33 1 0 1 0 2 0 1-1 1-3 2-4 9-10 21-19 34-22 7 0 7 0 11 1 4 1 9 1 13 2 1 0 2 0 3 0 2 0 5 0 7 0 0-6 0-12 0-18-10-3-20-3-30-3-1 0-1 0-4 0-20 0-35 6-49 20-18 19-21 40-20 64 0 17 5 31 17 43 2 2 2 2 2 3-3 0-7 0-10 0-3 0-5 0-8 0-5-2-7-6-9-11-11-25-13-49-3-74 11-28 30-50 58-61 24-9 51-9 75 3Z" fill="#DB9291" transform="translate(417,153)" />
<path data-fill-layer-id="vtracer-fill-2-da926d" d="M0 0c7 0 14 1 21 2 0 1-1 2-1 3-1 1-1 1-3 4 0 1-1 2-1 3-10 18-14 36-16 56 0 0-1 0-2 0-26-1-51-1-77-1-1 0-2 0-3 0-10 0-21 0-32 0 1-5 1-10 2-14 0-2 0-3 0-5 1-9 2-18 3-27 1 0 1 0 4 0 15-1 15-1 20-8 2-2 3-4 4-6 3-6 3-6 7-7 4 0 7 0 11 0 1 0 2 0 3 0 5 0 9 0 13 0 2 0 5 0 8 0 5 0 10 0 15 0 8 0 16 0 24 0Z" fill="#DA926D" transform="translate(254.53125,161.9111328125)" />
<path data-fill-layer-id="vtracer-fill-7-92b692" d="M0 0c4 1 5 3 7 7 4 13 4 26 4 39 6 0 6 0 10-1 2-2 3-4 4-7 2-3 4-5 8-7 2 0 2 0 5 1 5 6 8 10 8 18 0 1 0 2 0 4 0 0 0 0 3 0 5 0 9 0 14 0 1 0 3 0 5 0 27-1 27-1 35 6 1 3 1 3 3 5-7 4-15 3-22 3-2 0-3 0-4 0-2 0-3 0-4 0-1 0-1 0-3 0-3 0-3 0-7-2 0-1 0-1 1-3-7 2-10 5-15 10-9 6-22 6-32 7 0 0 0 0 0 2-1 8-2 13-7 19-5 3-10 5-15 5 0 1-1 2-1 4-1 12-6 23-15 31-3 2-4 3-8 3-4-1-6-3-8-6-2-4-2-8-2-12 0-2 0-4 0-6 0-3 0-5 0-8 0-3 0-6 0-9 0-1 0-1 0-2 0-5 0-7-3-10-2-1-4-3-6-4-2-2-2-2-4-5-1-5 0-9 3-13 4-4 9-6 15-8 0-1 1-3 1-4 3-4 3-5 8-7 2 0 4 0 7 0 0-1 0-2 0-3 0-3 0-7 0-11 0-1 0-1 1-4 0-11 1-23 10-31 2-1 2-1 4-1Z" fill="#92B692" transform="translate(175.375,28.0625)" />
<path data-fill-layer-id="vtracer-fill-8-b66d6d" d="M0 0c1 0 1 0 2 0 0 1 0 2 0 3 2 16 5 31 8 46 2 9 4 19 5 29 0 5 1 10 2 16 13 80 13 80 0 107-4 5-7 6-13 8-6 1-10 0-15-3-5-7-6-15-7-24 0-1 0-2 0-3-1-8-1-15-2-22 0-1 0-2 0-4 0-3 0-7 0-10 0-1 0-2 0-3-1-14-1-28-1-41 0-7 0-13-1-19 0-7 0-13 0-19 0-2 0-5 0-7-1-17 3-28 13-42 3-3 5-7 8-10 0 0 0 0 1-2Z" fill="#B66D6D" transform="translate(404,559)" />
<path data-fill-layer-id="vtracer-fill-9-924949" d="M0 0c6 0 11 0 17 0 0 2 0 4 0 6 0 23 3 46 6 69 1 8 2 16 3 24 0 2 0 3 0 5 2 12 3 24 5 36 0 2 0 3 0 4 0 4 1 7 1 11 0 1 0 3 1 4-1 6-4 10-8 14-1 2-2 4-3 6-1 1-2 2-2 3-3 3-5 7-8 11 0 1-1 1-1 2 0 0-1 0-1 0 0-1 0-1 0-4-2-46-5-91-7-137-1-5-1-10-1-15-1-3-1-6-1-10-1-10-1-19-1-29Z" fill="#924949" transform="translate(373,396)" />
<path data-fill-layer-id="vtracer-fill-3-b6916d" d="M0 0c22 0 22 0 29 6 9 8 23 7 35 7 0 0 0 0 4 0 10 0 19-1 29-5 3-1 3-1 7-1 4-1 4-1 7-3 4-3 8-2 13-1 3 0 5 1 8 1 2 0 5 1 7 1 0 1 1 3 1 4 3 0 7 1 10 1-13 18-29 27-50 32-27 3-61-8-83-23-1-2-3-3-4-4-1-1-2-1-3-2 0-1 0-1 0-2-1 0-2-1-3-1 0-1 0-1 0-2-1 0-1 0-2 0-5-5-5-5-5-8Z" fill="#B6916D" transform="translate(294,295)" />
<path data-fill-layer-id="vtracer-fill-10-db9492" d="M0 0c1 0 2 0 3 0 2 0 5 0 7 0 2 0 4 0 6 0 31-1 62 4 87 24 1 1 1 2 2 2 2 2 4 3 7 4 1 0 3 1 4 1 0 2 1 3 1 4-2 0-3 0-5 0 1 3 1 5 2 7-1 0-1 0-2 0-3-6-3-6-3-8-1 1-2 1-3 1 1 3 2 5 3 7-3 0-5 0-8 0 0 0 0-1 0-2-1 0-3-1-4-2-1-1-3-2-5-4-4-3-9-6-14-9-1 0-2-1-2-1-15-7-33-9-49-9-1 0-2 0-3 0-2 0-4 0-7 0-3 0-6 0-9 0-29 0-54 7-76 26-1 1-1 2-2 2-3 0-6 0-9 0 0 0 0 0-3 0-2 0-4-1-6-1 14-22 41-35 66-40 7-2 15-2 22-2Z" fill="#DB9492" transform="translate(355.875,110.76171875)" />
<path data-fill-layer-id="vtracer-fill-8-b66d6d" d="M0 0c7 1 14 2 21 3 19 5 37 7 57 8 3 0 6 1 9 1 8 1 17 1 26 2 1 0 1 0 4 0 7 1 14 1 21 2 0 0 1 0 2 0 6 0 11 1 17 1 1 0 2 0 3 0 16 1 31 1 47 0 54-2 108 0 163 1 0 3 0 5 0 8-28 0-57 0-85-1-5 0-9 0-14 0-15 0-30-1-45-1-1 0-2 0-3 0-15 0-29-1-43-1-3 0-6 0-9 0-33-1-33-1-49-2-6 0-11 0-16 0-79 0-79 0-101-14-5-5-5-5-5-7Z" fill="#B66D6D" transform="translate(143,361)" />
<path data-fill-layer-id="vtracer-fill-8-b66d6d" d="M0 0c0 0 0 0 3 0 31 2 62 2 94 3 3 0 7 0 10 0 0 0 0 0 3 0 18 0 36 0 54 1 0 1 0 1 0 2 1 0 1 0 4 0 19 0 38 1 57 4 0 1 1 2 1 3-12 1-24 1-36 2-1 0-2 0-3 0-42 0-84 0-126-1-1 0-2 0-2 0-6 0-12 0-17 0-2 0-3-1-4-1-2 0-3 0-4 0-2 0-3 0-4 0-3 0-6 0-9-1-2 0-4 0-6-1-1 0-2 0-3 0-1 0-2 0-3 0-1 0-3 0-4 0-3-1-5-1-8-1 1-3 2-7 3-10Z" fill="#B66D6D" transform="translate(453,242)" />
<path data-fill-layer-id="vtracer-fill-11-b6926d" d="M0 0c0 1 0 1 1 4 2 0 4 1 6 1 1 8 1 15 1 23 2 0 3 0 5 0 0 7 0 11-3 17-4 4-8 6-14 6-11 0-20-5-27-14-6-6-6-6-7-10 2 0 3 0 5 0-1-1-1-2-2-4-3-5-3-10-3-16-1 0-1 0-2 0 0-3 0-6 0-9 10-5 29 0 40 2Z" fill="#B6926D" transform="translate(363,232)" />
<path data-fill-layer-id="vtracer-fill-12-db926e" d="M0 0c2 2 2 2 2 4 0 4 0 4-1 9-3 9-2 19-2 28 2 0 5 0 7 0 1 8 1 15 2 23 1 0 1 0 2 0 2 19 2 19-2 24-3 1-5 2-8 3 0 0 0 0-2 1-10 4-17 2-26-2-10-4-21-15-26-25 1-1 1-3 2-4 0-1 0-1-1-4-2-5-3-11-2-17 1-1 1-2 2-3 1 0 3 1 4 1 0 2 0 3 0 5 1 0 1 0 2 0 0 1 0 2 0 2 1 6 2 11 5 16 0 1 0 1 0 2-1 0-1 0-4 1 7 11 15 19 28 22 7 1 11 0 17-4 3-3 4-7 4-11 0-2 1-3 1-4 0-1 0-2 0-3-2 0-3 0-5 0-1-8-1-15-1-23-1 0-1 0-6-1 0-1-1-2-1-3-12-2-24-4-36-4 6-14 17-25 31-32 5-2 9-2 14-1Z" fill="#DB926E" transform="translate(372,196)" />
<path data-fill-layer-id="vtracer-fill-7-92b692" d="M0 0c5 0 10 1 14 5 0 4 0 8 0 12 0 1 0 2 0 2 0 3 0 6 0 9 0 0 0 1 0 2-1 6-1 6-2 9-4 1-8 2-12 3-5 0-9 1-13 3-3 5-3 11-4 17 0 5-1 8-4 12-1 0-2 1-3 1 0-1 0-1-1-3 0-1-1-3-1-4 0-2-1-3-1-4-1-4-1-4-3-8-7-3-14-4-21-5-5-1-9-3-13-6-1-3-1-3-2-5 7-2 15-2 22-3 3 0 6 0 9-1 0-1 0-3 0-4 1-4 1-4 3-6 3 0 6-1 9-1 10-1 10-1 14-2 1-3 1-3 2-6 0-1 1-2 1-3 2-3 3-6 4-9 1-4 1-4 2-5Z" fill="#92B692" transform="translate(590,346)" />
<path data-fill-layer-id="vtracer-fill-13-db926d" d="M0 0c1 0 2 0 4 0 6 0 10 4 15 8 1 1 2 2 4 3 0 1 1 1 2 2 0 1 0 1 0 2 7 0 13 1 20 1 0-2 0-5 0-7 4 0 8 1 12 1 0 5-1 9-5 13-8 6-15 7-25 6-7-2-14-6-20-10-3-2-3-2-7-2-2 4-1 7-1 11 3 4 7 5 12 6 10 3 16 8 22 17 5 10 6 22 3 33-2 0-3-1-5-1 0-1 0-1 0-4 1-22 1-22-7-31-7-7-17-9-27-11-3-1-3-1-5-3 0-2 0-5 0-7 0-7-1-12-2-19-1 0-3 0-4 0-2 0-3 0-5 0 0 0 0 0-2 0-6 0-11-1-17-2 0-2 0-5 0-7 31-2 31-2 38 1Z" fill="#DB926D" transform="translate(413,155)" />
<path data-fill-layer-id="vtracer-fill-14-b5da92" d="M0 0c5 2 8 6 10 11 1 4 1 8 1 12 0 0 0 0 3 0 5 0 9 0 13 0 2 0 4 0 6 0 26 0 26 0 35 6 1 3 1 3 3 5-7 5-15 3-23 3-1 0-2 0-3 0-1 0-1 0-4 0-1 0-1 0-4 0-2 0-2 0-6-2 0-1 0-2 1-3-7 2-11 5-15 10-5 4-10 5-16 6-4-1-5-4-7-7-1 0-2-1-3-1-4-2-4-2-5-4-2-8-3-17 0-24 2-2 3-5 5-7 1 0 1 0 4-3 2-2 2-2 5-2Z" fill="#B5DA92" transform="translate(210.5,58.75)" />
<path data-fill-layer-id="vtracer-fill-7-92b692" d="M0 0c1 0 2 0 3 0 0 1 0 2 0 2 1 18 2 36 3 54 1 18 2 36 2 54 0 1 0 2 0 3 0 24 0 24-7 33-1 0-2 1-4 1-3-5-4-10-4-16 0-2 0-3 0-5 0-1 0-3 0-5 0 0 0 0 0-2 0-21 1-41 1-62 0-3 0-5 0-8 0-5 0-10 0-15 0-1 0-3 0-4 1-30 1-30 6-30Z" fill="#92B692" transform="translate(227.5625,390.9375)" />
<path data-fill-layer-id="vtracer-fill-15-926d49" d="M0 0c3 4 3 8 3 13 0 1 1 2 1 3 0 3 0 5 0 7 1 3 1 6 1 10 1 2 1 4 1 6 0 1 0 2 0 3 2 16 2 16-2 21 0 1-1 2-2 3 0 1-1 1-2 2-1 2-2 4-3 6-1 1-2 2-2 3-3 3-5 7-8 11 0 1 0 1-1 2 0 0-1 0-1 0 0-9-1-19-1-28 0-4-1-7-1-10 0-5 0-9 0-14 0-1 0-3-1-4 0-8 0-17 0-25 2 0 3-1 5-1 5-2 9-4 13-8Z" fill="#926D49" transform="translate(398,501)" />
<path data-fill-layer-id="vtracer-fill-8-b66d6d" d="M0 0c0 0 0 0 3 1 6 1 10 2 14 7 4 9 3 19 4 29-10 0-19 0-29-1-1 0-3 0-4 0-12-1-12-1-16-2 0-4 1-7 2-11 0-1 0-2 1-3 2-9 4-16 12-21 4-2 8 0 13 1Z" fill="#B66D6D" transform="translate(377.3125,58.125)" />
<path data-fill-layer-id="vtracer-fill-16-dbb692" d="M0 0c2 0 3 0 5 0 33 1 33 1 41 8 0 1 1 2 2 3-3 5-7 8-13 11-5 1-10 0-15-1-4 0-8-1-12-1-1 0-3 0-4 0-2 0-5 0-8-1-11 0-19-3-29-8 0-1 0-2 0-3 11-7 20-8 33-8Z" fill="#DBB692" transform="translate(529.9375,124.5)" />
<path data-fill-layer-id="vtracer-fill-17-db9271" d="M0 0c1 0 1 0 2 0 0 1 0 2-1 4-1 8-2 16-3 25 1 0 1 0 2 0 0 0 0 0 0 2 0 23 2 42 18 59 2 2 2 2 2 3-3 0-7 0-10 0-3 0-5 0-8 0-5-2-7-6-9-11-6-14-10-29-10-44 0-1 0-2 0-4 0-3 0-3 1-7 1 0 2-1 3-1 1-3 1-3 2-6 3-7 6-14 11-20Z" fill="#DB9271" transform="translate(294,203)" />
<path data-fill-layer-id="vtracer-fill-18-db9270" d="M0 0c3 0 3 0 6 0 2 2 2 2 4 5 1 1 2 2 2 2 2 3 2 3 4 7 1 0 1 0 2 0 2 2 3 3 5 5 8 7 16 12 26 16 1 1 2 1 3 2 34 14 81 19 116 5 14-6 25-16 32-29 2-2 2-2 5-2 0 0 1 0 2 0-4 15-17 26-30 33-28 15-65 14-95 8-2 0-3-1-5-1-8-2-8-2-11-3 0-1-1-2-1-3-2-2-2-2-6-3-2 0-4-1-5-1-21-3-38-17-50-34-4-6-4-6-4-7Z" fill="#DB9270" transform="translate(263,306)" />
<path data-fill-layer-id="vtracer-fill-8-b66d6d" d="M0 0c1 0 2 0 3 0 5 0 11 0 16 1-1 2-2 3-3 5 0 0-1 1-2 2-1 2-1 2-2 3-2 0-4 0-7 0-6 0-12 0-19 0-17 1-34 1-52 1-1 0-2 0-4 0-4 0-7 0-11 0-1 0-1 0-4 0-1 0-2 0-3 0-1 0-2 0-3 0-2 0-2 0-4-1 0-3 0-6 0-9 1 0 3 0 4 0 6 0 13 0 19 0 1 0 2 0 4 0 13-1 27-1 40-1 9-1 19-1 28-1Z" fill="#B66D6D" transform="translate(636.9375,305.875)" />
<path data-fill-layer-id="vtracer-fill-8-b66d6d" d="M0 0c1 0 3 0 4 0 3 0 6 0 9 0 5 0 9 0 14 0 15 0 30 0 46 1 0 2 0 5 0 7 2 0 5 1 8 1 0 0 0 1 0 1-3 0-6 0-8 0 0 1 0 3 0 4-4 1-7 1-11 1-1 0-3 0-4 0-2 0-3 0-5 0-1 0-1 0-4 0-25 0-25 0-30-3-6-3-12-3-18-4-3 0-6 0-8 0-2 0-3 0-4-1-4 0-7 0-10-1-1-2-1-3-1-5 7-1 14-1 22-1Z" fill="#B66D6D" transform="translate(163.48046875,227.8671875)" />
<path data-fill-layer-id="vtracer-fill-19-db9292" d="M0 0c1 0 2 0 3 0 10 0 18 2 27 4 1 1 1 1 4 2 3 1 7 1 10 2 0 1 0 1 0 1-7 2-7 2-9 0-4-1-7-1-11-1-1 0-3 0-4 0-1 0-3 0-4 0-2 0-4 0-5 0-4 0-7 0-11 0 0 3 0 6 0 9 1 0 3 0 5 0 0 1 0 1 0 1-1 0-2 0-3 0-29 1-49 4-71 24 0 0 0 0-1-3 16-23 41-39 70-39Z" fill="#DB9292" transform="translate(375.1875,145.5625)" />
<path data-fill-layer-id="vtracer-fill-11-b6926d" d="M0 0c1 0 3 0 4 0 4 0 7 0 10 0 4 0 9 0 14 0 16 0 32 0 49 2-1 1-2 2-3 3-3 4-3 4-5 7-4 0-4 0-8 0-2 0-4 0-5 0-1-1-2-1-3-1-7 0-15 0-22 0-2 0-4 0-5 0-5 0-10 0-14 0-5 0-10 0-15 0-9 0-18 0-27 0 1-3 2-6 3-10 9-1 18-1 27-1Z" fill="#B6926D" transform="translate(208.45703125,151.83203125)" />
<path data-fill-layer-id="vtracer-fill-20-b6db92" d="M0 0c0 1 1 2 1 3 2 1 5 2 7 3 3 2 3 2 4 5 0 2 0 5 0 7-2 0-4 0-6 0 0 1 0 1 0 2 1 4 1 8 1 12 0 1 0 2 0 3 0 5 0 10-2 15-2 0-2 0-10 1-2-4-3-6-3-10 0-1 0-1-1-5 0-5-1-11-1-16-1 0-2-1-3-1 0 0 0 0-3-1-1-1-2-1-3-2-3-1-3-1-4-4 0-3 0-6 0-9 7-4 15-3 23-3Z" fill="#B6DB92" transform="translate(183,78)" />
<path data-fill-layer-id="vtracer-fill-16-dbb692" d="M0 0c-4 1-6 1-10-1-22-7-44-6-64 4-14 7-27 17-35 30 0 0 0 0 1 1 1-1 1-1 2-2 22-19 43-21 71-20 0 0 0 1 0 1-1 0-2 0-2 0-4 0-8 0-11 0-1 0-3 0-4 0-21 1-36 9-51 24-11 12-16 27-18 43-1 0-1 0-2 0 0-9 0-21 4-29-4 4-6 7-9 12 0 2-1 3-1 4-2 4-3 7-5 11-1 0-2-1-3-1 4-16 10-31 20-44 1-1 1-2 2-3 28-36 73-47 115-30Z" fill="#DBB692" transform="translate(415,152)" />
<path data-fill-layer-id="vtracer-fill-18-db9270" d="M0 0c14 0 29 0 43 3 0 1 0 1 0 2-3 0-7 1-10 1 8 9 23 12 35 13 18 1 35-4 49-15 0 0 1-1 1-1 3 0 5 0 8 0 0 0 0 0 1 2-18 14-36 22-59 21-24-3-48-11-68-25 0 0 0-1 0-1Z" fill="#DB9270" transform="translate(309,311)" />
<path data-fill-layer-id="vtracer-fill-12-db926e" d="M0 0c1 0 3 1 4 1-1 4-1 7-2 11-2 0-3 1-5 1 0 1 1 2 1 3 4 8 7 15 9 24 1 0 2 0 3 0 14-2 14-2 21 2 0 0 0 1 0 1-6 0-11 0-17 0-1 2-1 4-2 6-1 2-3 4-4 6-3 0-7-1-10-1 0-1-1-2-1-3-3-1-6-1-9-1-1-1-2-1-3-1-12-2-12-2-16 1-4 2-6 2-10 2 1-1 2-1 2-2 4-4 4-8 4-13 0-1 0-2 0-3 0-2 0-5 0-7 1 1 2 1 3 2 0 1 0 1 0 2 1 0 1 0 2 0 3 3 3 3 3 6 1 0 1 0 2 0 2 2 3 4 5 6 3 2 7 1 11 2 1 0 1 0 3 0 2 0 4 0 6 0 0-3 0-6 0-9 0-1 0-1 0-2-1-6-1-6-3-9-1-1-1-1-2-2 0-1-1-2-1-2-2-3-4-5-7-7 0-1 0-1 0-2-1 0-1 0-2 0-3-3-3-3-3-6 1-1 3-1 4-2 9-4 9-4 14-4Z" fill="#DB926E" transform="translate(436,250)" />
<path data-fill-layer-id="vtracer-fill-11-b6926d" d="M0 0c1 0 3 0 4 0 3 6 3 6 3 8 0 0 0 0 2 0 7 0 14 0 21 0 3 0 5 0 8 0 4 0 8 0 11 0 2 0 3 0 4 0 1 0 1 0 3 0 1 0 2 0 3 0 3 0 5 1 8 3-2 4-2 4-6 6-7 1-15 1-22 2-8 0-8 0-12 1-5 0-9 0-13 0-1 0-2 0-3 0-5 0-9 0-14-1 0-4 0-7 0-11 2 0 4-1 6-1-1-2-2-5-3-7Z" fill="#B6926D" transform="translate(461,145)" />
<path data-fill-layer-id="vtracer-fill-21-926d6d" d="M0 0c1 0 1 0 2 0 2 9 3 16-2 23-3 5-6 9-9 14-2 3-4 6-6 9-1 1-2 3-3 4 0 0-1 0-1 0-1-16-1-31-1-47 1 0 2 0 3 0 1 0 1 0 4 0 1 0 1 0 4 0 3 0 6 0 9-1 0-1 0-1 0-2Z" fill="#926D6D" transform="translate(402,541)" />
<path data-fill-layer-id="vtracer-fill-13-db926d" d="M0 0c1 1 1 1 1 4 0 2 0 3 0 4 0 2 0 3 0 5 0 1 0 1 0 5 0 1 0 3 0 4 0 4 0 8 0 12-1 0-1 0-2 0 0-1-1-2-1-3-10-2-20-3-30-4 3-10 12-18 20-24 4-2 7-4 12-3Z" fill="#DB926D" transform="translate(365,202)" />
<path data-fill-layer-id="vtracer-fill-22-db9591" d="M0 0c2 0 3 0 5 0 1 0 1 0 3 1 1 0 1 0 2 0-1 1-1 2-2 3 0 1-1 3-2 4 0 1-1 2-1 2-11 19-14 37-16 57-3 0-6-1-9-1-1-23 6-47 19-65 0 0 1-1 1-1Z" fill="#DB9591" transform="translate(266,163)" />
<path data-fill-layer-id="vtracer-fill-23-6d9292" d="M0 0c1 0 2 0 3 0 0 1 0 2 1 3 0 3 0 5 0 8 0 3 0 7 0 10 0 13 0 13 1 18 2 15-4 28-10 41 0 0 0 0-1 0 0-9 0-17 0-26 0-3 0-6 0-9 0-4 0-8 0-13 0-1 0-2 0-4 0-9 1-18 1-27 1-1 1-1 5-1Z" fill="#6D9292" transform="translate(227.5625,390.9375)" />
<path data-fill-layer-id="vtracer-fill-23-6d9292" d="M0 0c4 0 6 0 10 1 1 3 1 5 1 8 0 1 0 2 0 3 0 1 0 2 0 4 0 2 0 4 0 6 0 1 0 2 0 3 0 2 0 2 1 4 0 2 0 3 0 5 0 1 0 2 0 3 0 2 0 2-1 5 1 0 1 0 2 0 0 3 0 3-1 7-3 2-3 2-7 2-3-1-3-1-5-3 0-2 0-5-1-7 0-4 0-7-1-11-2-24-2-24 2-30Z" fill="#6D9292" transform="translate(144,121)" />
<path data-fill-layer-id="vtracer-fill-13-db926d" d="M0 0c4 0 7 0 11 0 29 0 60 4 82 25-4 1-4 1-7 0-1-1-2-2-3-3-22-16-49-18-75-18-4 0-7 0-10 0-35 0-63 11-88 34-1 1-1 2-2 2-1 0-3 0-4-1 27-28 58-39 96-39Z" fill="#DB926D" transform="translate(366.014892578125,112.553955078125)" />
<path data-fill-layer-id="vtracer-fill-8-b66d6d" d="M0 0c3 0 5 0 8 0 10 0 21 0 31 2 2 2 2 2 2 5 0 1 0 2 0 3-5 4-12 2-18 2-8-1-17-1-25-1-1 0-3 0-5 0-3 0-7 0-11 0 0-3-1-6-1-10 6-2 13-1 19-1Z" fill="#B66D6D" transform="translate(159.010009765625,340.814697265625)" />
<path data-fill-layer-id="vtracer-fill-14-b5da92" d="M0 0c1 0 1 0 2 0 0 1 1 1 1 2 2 0 4 0 6 0 3 7 4 12 4 20 0 1 0 2 0 3 0 2 0 3 0 4 0 2 0 3 0 4 0 4 0 7 0 10-4 1-7 1-11 1-5-8-5-15-5-25 0-1 0-2 0-2 0-7 1-11 3-17Z" fill="#B5DA92" transform="translate(172,32)" />
<path data-fill-layer-id="vtracer-fill-8-b66d6d" d="M0 0c1 0 2 0 3 0 1 0 2 0 3 0 1 0 1 0 4 0 1 0 2 0 3 0 4 0 8 0 12 0 2 0 5 0 8 0 6 0 12 0 19 0 1 2 1 2 5 12-8 0-17 0-25-1-3 0-5 0-8 0-4 0-8 0-12 0-1 0-1 0-4 0-1 0-2 0-4 0-1 0-2 0-3 0 0-1 0-1-2-1-2-3-2-5-2-9 1-1 1-1 3-1Z" fill="#B66D6D" transform="translate(200.17030334472656,293.87974548339844)" />
<path data-fill-layer-id="vtracer-fill-23-6d9292" d="M0 0c8 1 8 1 10 3-1 4-1 4-2 8-3 0-6-1-9-1 4 6 4 6 6 8 3 5 4 11 4 17-1 1-3 1-4 2 0-1 0-1-1-3 0-1-1-3-1-4 0-1 0-1-1-4-1-4-1-4-3-8-7-3-14-4-21-5-5-1-9-3-13-6 0-1-1-2-1-3 2-2 8-2 11-2 8 0 15 2 23 5 1-2 1-5 2-7Z" fill="#6D9292" transform="translate(561,384)" />
<path data-fill-layer-id="vtracer-fill-8-b66d6d" d="M0 0c2 0 4 0 6 0 1 0 1 0 4 0 3 0 7 0 10 0 3 0 5 0 8 0 5 0 11 0 17 0 0 5-1 7-5 10-3 1-6 1-10 1 0 0 0 0-3 0-3 0-6 0-9-1-2 0-4 0-6 0-15 0-15 0-18-1 0-3 0-5 0-8 1-1 1-1 6-1Z" fill="#B66D6D" transform="translate(528.703369140625,350.886474609375)" />
<path data-fill-layer-id="vtracer-fill-7-92b692" d="M0 0c2 0 4 0 6 0 1 12 1 23 1 35 0 3 0 7 0 10 0 2 0 4 0 7 0 1 0 2 0 3 0 6 0 11-2 17 0 0 0 0-3 2-2-2-1-8-2-11 0-1 0-2 0-3 0-3 0-6 0-9 0-2 0-3 0-4-1-16-1-31 0-47Z" fill="#92B692" transform="translate(260,392)" />
<path data-fill-layer-id="vtracer-fill-20-b6db92" d="M0 0c5 1 10 1 14 5 1 9 0 17-1 26-2 0-3 0-5 0 0 0 0 0-3 0-2-1-2-1-4-4-3-1-3-1-6-1 0-9 0-19 5-26Z" fill="#B6DB92" transform="translate(590,346)" />
<path data-fill-layer-id="vtracer-fill-11-b6926d" d="M0 0c1 0 2 0 4 0 6 0 10 4 15 8 0 0 0 1 0 1-11 0-23 0-34 0-1 0-3 0-4 0-7-1-13-1-19-3 0-2 0-5 0-7 31-2 31-2 38 1Z" fill="#B6926D" transform="translate(413,155)" />
<path data-fill-layer-id="vtracer-fill-8-b66d6d" d="M0 0c1 0 2 0 3 0 3 0 5 0 7 0 4 0 7 0 11 0 2 0 5 0 7 0 1 0 2 0 3 0 7 0 12 1 19 3-1 1-1 2-1 3-5 1-9 1-14 1-1 0-3 0-4 0-2 0-3 0-5 0-1 0-2 0-4 0-5 0-9 0-14 0-3 0-7 0-10 0-8 0-15 0-23 0 0-2 0-4 1-6 8-1 16-1 24-1Z" fill="#B66D6D" transform="translate(205.1953125,151.796875)" />
<path data-fill-layer-id="vtracer-fill-24-db928f" d="M0 0c1 0 1 0 2 0 0 1 0 2-1 4-1 8-2 16-3 25 1 0 1 0 2 0 0 9 0 17 0 26 0 0 0 0-2 1-1 0-1-1-2-1 0-1 0-1 0-2 0-3 0-7 0-10 0-1 0-2 0-3-1-1-1-2-1-4 0-1 0-2 0-3 0-2 0-2-2-4-3 0-5-1-8-1 0 3-1 6-1 9 1 0 3 0 4 0 0 1 0 2 0 3 1 1 1 2 1 4 0 0 0 0 0 4 1 3 1 3 2 7-1 0-2 0-3 0 0 1-1 1-1 2 0-1 0-1 0-2-1 0-1 0-2 0-3-9-3-19-1-28 1 0 2-1 3-1 1-3 1-3 2-6 3-7 6-14 11-20Z" fill="#DB928F" transform="translate(294,203)" />
<path data-fill-layer-id="vtracer-fill-19-db9292" d="M0 0c3 0 6 0 10 0 29 0 60 4 83 24 2 3 2 3 3 4-4-1-5-1-8-4-23-19-53-21-81-21-3 0-7 0-10 0-35 0-64 10-89 35-1 1-3 3-4 4-1 0-1 0-2-1 26-30 59-41 98-41Z" fill="#DB9292" transform="translate(366.024658203125,110.62939453125)" />
<path data-fill-layer-id="vtracer-fill-23-6d9292" d="M0 0c1 0 1 0 3 2 3 0 6 1 9 1 0 2 0 4 0 6 1 0 1 0 2 0 0 9-1 17-6 25-1 0-1 0-4 1-3-5-4-9-4-15 0-1 0-2 0-4 0-1 0-2 0-3 0-1 0-3 0-4 0-3 0-6 0-9Z" fill="#6D9292" transform="translate(221,503)" />
<path data-fill-layer-id="vtracer-fill-11-b6926d" d="M0 0c9 0 18 0 27 0 4 0 8 0 12 0 32 0 32 0 47 0 1 0 1 0 3 0 3 0 3 0 7 1 2 3 2 3 2 7-6 0-13-1-19-1-14-2-28-3-42-3 0-1 0-1 0-2-12 0-24 0-37 0 0-1 0-1 0-2Z" fill="#B6926D" transform="translate(580,244)" />
<path data-fill-layer-id="vtracer-fill-25-db9272" d="M0 0c1 0 1 1 2 1 0 1 0 1 0 5 0 14 2 27 5 41 0 2 1 3 1 5 0 1 1 3 1 4-2 0-3 0-5 0-4-12-7-23-7-36-2 0-3 0-5 0 0-6 0-11 0-17 3 0 5 0 8 0 0-1 0-2 0-3Z" fill="#DB9272" transform="translate(253,238)" />
<path data-fill-layer-id="vtracer-fill-19-db9292" d="M0 0c3 0 5 0 8 0 2 0 3 0 5 0 4 0 6 1 9 4 0 1 0 1 0 2 7 0 13 1 20 1 0-2 0-5 0-7 2 0 4 0 6 0 1 4 1 4-1 7-3 4-6 6-11 8-14 1-25-6-36-14 0 0 0-1 0-1Z" fill="#DB9292" transform="translate(416,164)" />
<path data-fill-layer-id="vtracer-fill-19-db9292" d="M0 0c1 4 1 6-1 10-4 5-9 8-15 9-14 1-22-3-33-10-3-2-3-2-7-2-2 4-1 7-1 11 3 4 7 5 12 6 10 3 16 8 22 17 4 10 6 22 3 33-1 0-1 0-2 0 0-1 0-3 0-4 0-2 0-3 0-5 0-1 0-2 0-2 0-10-1-20-8-27-7-7-15-9-24-11-3-1-3-1-6-4 0-4 0-4 0-9 0-1 0-3 0-4 0-4 0-4 2-6 5 0 9 2 13 5 10 7 17 11 29 9 5-1 9-3 12-8 1-2 3-5 4-8Z" fill="#DB9292" transform="translate(469,165)" />
<path data-fill-layer-id="vtracer-fill-13-db926d" d="M0 0c1 0 2 0 3 0 0 1 0 1-2 3-11 19-17 40-18 63-2 0-3 0-5 0-1-22 6-44 17-64 2-2 2-2 5-2Z" fill="#DB926D" transform="translate(263.125,162.875)" />
<path data-fill-layer-id="vtracer-fill-7-92b692" d="M0 0c1 4 1 8 0 12 2 0 4 0 6 0 1 1 1 3 2 4 2 1 2 1 5 1 1 0 2 0 3 0 0 0 0 0 2 0 0 3 0 3 0 6-3 3-5 3-9 4-1 0-2 0-2 0-1 0-2 1-3 1-1 0-2 0-3 0-2 0-5 1-7 1 0-3 1-5 1-8 1 0 1-1 2-1 0-2 0-3 0-5-1-1-1-1-6-1-1-1-2-1-4-1 0-1-1-1-1-2 3-1 7-1 10-2 0-1 1-2 1-3 1-3 1-3 3-6Z" fill="#92B692" transform="translate(585,360)" />
<path data-fill-layer-id="vtracer-fill-26-ffb6b6" d="M0 0c18 0 35 2 53 6 0 1 0 1 0 2-5 0-11 0-16 0-2 0-3 0-5 0-12 0-21-1-32-7 0 0 0-1 0-1Z" fill="#FFB6B6" transform="translate(322,301)" />
<path data-fill-layer-id="vtracer-fill-8-b66d6d" d="M0 0c24-1 24-1 35 4 0 1 0 1 0 2-4 2-8 2-13 2-1 0-2 0-3 0-2 0-3 0-4 0-2 0-3 0-4 0-4 0-7 0-10 0 0-3-1-5-1-8Z" fill="#B66D6D" transform="translate(465,155)" />
<path data-fill-layer-id="vtracer-fill-7-92b692" d="M0 0c3 1 3 1 4 3 1 1 1 2 2 3-2 0-4 1-6 1-1-1-1-2-1-3-1 0-2 0-2 0-2 7-3 13-3 20 0 1 0 1 0 3 0 3 1 5 1 8-3 0-6-1-9-1 0-12 1-25 10-33 2-1 2-1 4-1Z" fill="#92B692" transform="translate(175.4375,28.125)" />
<path data-fill-layer-id="vtracer-fill-8-b66d6d" d="M0 0c6 3 12 6 19 8 0 0 0 0 0 1-7 0-14 0-21-2-4 0-8 0-13 0-2 0-2 0-3-1 0-3 0-6 0-8 5-5 13 0 18 2Z" fill="#B66D6D" transform="translate(305.875,349.25)" />
<path data-fill-layer-id="vtracer-fill-11-b6926d" d="M0 0c15-2 15-2 20 2 6 7 6 7 6 10-4 0-8-1-12-1-2 0-3 0-4 0-1 0-2 0-3 0-1 0-1 0-4-1-2 0-2 0-3-1 0-3 0-6 0-9Z" fill="#B6926D" transform="translate(596,158)" />
<path data-fill-layer-id="vtracer-fill-11-b6926d" d="M0 0c0 0 0 1 0 1-20 0-40 1-61 1 0-1 1-3 1-4 19-3 41-2 60 2Z" fill="#B6926D" transform="translate(242,151)" />
<path data-fill-layer-id="vtracer-fill-26-ffb6b6" d="M0 0c1 0 1 0 3 0 1 0 1 0 3 0 1 0 3 0 4 0 0 0 0 0 3 0 3 0 6 0 9 0 0 1 0 2 1 3 0 0 1 0 2 0 1 1 2 2 3 3 0 1 0 2 0 2-11 0-22 0-33-1 1-7 1-7 5-7Z" fill="#FFB6B6" transform="translate(276.43017578125,299.77294921875)" />
<path data-fill-layer-id="vtracer-fill-8-b66d6d" d="M0 0c3 2 3 2 5 3-1 5-1 5-3 7-8 0-16 0-24-1 7-7 12-11 22-9Z" fill="#B66D6D" transform="translate(418,304)" />
<path data-fill-layer-id="vtracer-fill-20-b6db92" d="M0 0c6 0 12 0 18 1 2 2 2 2 2 5 0 0 0 1 0 2-1 0-2 1-3 1 0 1 0 1 0 2-2 0-4 0-6 0 0 0 0 0-3 0-3 0-5 0-8-1 0-3 0-7 0-10Z" fill="#B6DB92" transform="translate(563,372)" />
<path data-fill-layer-id="vtracer-fill-16-dbb692" d="M0 0c3 2 3 2 5 4-1 5-4 7-8 10-4 2-4 2-8 3 0-5 0-11 0-16 5-2 6-2 11-1Z" fill="#DBB692" transform="translate(410,222)" />
<path data-fill-layer-id="vtracer-fill-23-6d9292" d="M0 0c2 0 4 0 6 0 0 4 1 9 1 13 0 1 0 2 0 3 0 5 0 8-2 12-1 1-2 2-3 3-1 0-1 0-2 0-1-10-1-21 0-31Z" fill="#6D9292" transform="translate(260,392)" />
<path data-fill-layer-id="vtracer-fill-23-6d9292" d="M0 0c4-1 6-1 9 2 2 2 2 2 2 4 1 0 1 0 2 0 0 3-1 7-1 10-8 0-8 0-12-3-2-4-3-6-2-10 1-1 1-2 2-3Z" fill="#6D9292" transform="translate(128,100)" />
<path data-fill-layer-id="vtracer-fill-19-db9292" d="M0 0c0 7 0 7-1 11 0 5 0 9 0 14 0 1 0 2 0 3 0 3 0 5 0 8 0 0 0 0-2 1-1-4-1-7-1-11 0-1 0-3 0-4 0-1 0-1 0-4 0-2 0-3 0-5 0-3 0-7 0-10-11 1-19 7-26 16-2 3-4 7-6 10-1 0-2-1-3-1 8-12 16-22 29-28 4-1 6-1 10 0Z" fill="#DB9292" transform="translate(369,200)" />
<path data-fill-layer-id="vtracer-fill-23-6d9292" d="M0 0c10 1 10 1 14 4 0 1-1 3-1 4-3 1-6 1-8 2-1 0-1 0-5 0-4 1-4 1-6 1 0-3 1-5 1-8 1 0 3 0 4 0 0-1 1-2 1-3Z" fill="#6D9292" transform="translate(585,378)" />
<path data-fill-layer-id="vtracer-fill-23-6d9292" d="M0 0c3 0 6 0 9 0 0 0 1 1 1 1 0 2 0 4 0 6 0 1-1 2-1 3 0 3 0 3-1 4-2 0-3 0-5 0-1-1-2-1-3-1-1 0-1 0-2 0 0-5 0-8 2-13Z" fill="#6D9292" transform="translate(160,111)" />
<path data-fill-layer-id="vtracer-fill-16-dbb692" d="M0 0c0 0 0 1 0 1-1 0-1 0-2 0-15-1-27 4-38 14-10 10-16 19-21 32-1 0-1 0-2 0 2-8 6-16 11-23 1 0 1 0 2 0 1-1 1-3 2-4 11-13 30-27 48-20Z" fill="#DBB692" transform="translate(378,186)" />
<path data-fill-layer-id="vtracer-fill-8-b66d6d" d="M0 0c9 1 17 1 26 2 0 2 0 3 0 5-9 0-18 0-27-2 0-2 1-3 1-5Z" fill="#B66D6D" transform="translate(335,234)" />
<path data-fill-layer-id="vtracer-fill-19-db9292" d="M0 0c1 0 1 1 2 1-1 1-1 2-2 3-11 20-16 40-17 62-1 0-1 0-2 0-1-23 6-44 17-64 1-1 1-1 2-2Z" fill="#DB9292" transform="translate(260,163)" />
<path data-fill-layer-id="vtracer-fill-11-b6926d" d="M0 0c11 1 21 2 32 3 1 0 3 0 4 0 4 0 7 1 11 1 0 0 0 1 0 1-16 0-32 1-48 1 0-2 1-4 1-6Z" fill="#B6926D" transform="translate(142,223)" />
<path data-fill-layer-id="vtracer-fill-20-b6db92" d="M0 0c0 3 0 7 0 10-3 0-7 0-10 0-2-4-2-6-2-11 9-1 9-1 12 1Z" fill="#B6DB92" transform="translate(155,97)" />
<path data-fill-layer-id="vtracer-fill-7-92b692" d="M0 0c4 1 7 4 10 7-4 4-6 4-11 4 0 0 0 0-3 0-1 0-2 0-4 0-1 0-2 0-3 0-2 0-3 0-4 0-3 0-6 0-9 0 0 0 0-1 0-1 3 0 7-1 10-1 1 0 2 0 3 0 1 0 1 0 3-1 1 0 2 0 3 0 2 0 4 0 6 0 0-3-1-5-1-8Z" fill="#92B692" transform="translate(271,85)" />
<path data-fill-layer-id="vtracer-fill-23-6d9292" d="M0 0c7 0 7 0 10 1 3 4 3 4 4 7-3 1-6 1-9 2-1 0-2 0-3 0-1 0-2 0-3 0 0-7 0-7 1-10Z" fill="#6D9292" transform="translate(195,98)" />
<path data-fill-layer-id="vtracer-fill-27-dbb092" d="M0 0c6 0 11 0 17 3 0 1 1 3 1 4-2 0-3 0-5 0 1 2 1 5 2 7-1 0-1 0-2 0-3-6-3-6-3-8-1 0-2 0-3 0-4-1-4-1-7-4 0-1 0-1 0-2Z" fill="#DBB092" transform="translate(455,139)" />
<path data-fill-layer-id="vtracer-fill-7-92b692" d="M0 0c-6 5-11 6-18 7-2 0-2 0-4-2-1-2-1-2-1-4 3 0 7-1 10-1 1 0 1 0 3 0 8-1 8-1 10 0Z" fill="#92B692" transform="translate(229,99)" />
<path data-fill-layer-id="vtracer-fill-23-6d9292" d="M0 0c3 0 6 1 9 1 0 4-1 7-1 11-2 0-5 0-7 0-1-1-1-1-1-3 0-2 0-3 0-4 0-1 0-2 0-3 0 0 0-1 0-2Z" fill="#6D9292" transform="translate(161,62)" />
<path data-fill-layer-id="vtracer-fill-19-db9292" d="M0 0c2 0 3 0 5 0 0 1 0 2 0 3 1 1 1 2 1 4 0 0 0 0 0 4 1 3 1 3 2 7-1 0-2 0-3 0 0 1-1 1-1 2 0-1 0-1 0-2-1 0-1 0-2 0-2-6-2-12-2-18Z" fill="#DB9292" transform="translate(277,240)" />
<path data-fill-layer-id="vtracer-fill-11-b6926d" d="M0 0c3 0 7 0 10 0 0 3 0 6 0 9-4 0-7 0-11 0 0-3 1-6 1-9Z" fill="#B6926D" transform="translate(279,231)" />
<path data-fill-layer-id="vtracer-fill-28-db9592" d="M0 0c0 1-1 2-1 3-1 3-1 6-1 9-1 0-3 0-4 0 0 1 0 1 0 2-1 0-1 0-2 0 0-1 0-1 0-2-1 0-1 0-2 0-3-3-3-3-3-6 1-1 3-1 4-2 8-4 8-4 9-4Z" fill="#DB9592" transform="translate(431,250)" />
<path data-fill-layer-id="vtracer-fill-7-92b692" d="M0 0c1 0 1 0 2 0 0 1 0 2 0 3 0 2 0 3 0 5 0 0 0 0 1 4 0 4 0 4 1 8 0 2 0 5 0 7 0 1 0 2 0 3 0 1 0 1 0 3-3-2-3-2-4-5 0-2 0-4 0-6 0-2 0-3 0-4 0-2 0-3 0-4 0-2 0-3 0-4 0-3 0-7 0-10Z" fill="#92B692" transform="translate(140,135)" />
<path data-fill-layer-id="vtracer-fill-23-6d9292" d="M0 0c3 0 6 1 9 1 0 3-1 6-1 9-3 0-6-1-9-1-2-3 0-6 1-9Z" fill="#6D9292" transform="translate(145,110)" />
<path data-fill-layer-id="vtracer-fill-19-db9292" d="M0 0c1 0 1 0 3 2 0 1 0 1 0 2 1 0 1 0 2 0 3 3 3 3 3 6 1 0 1 0 2 0 0 1 0 1 0 2-1 0-3 1-4 1-4 1-4 1-6 2 0-5 0-10 0-15Z" fill="#DB9292" transform="translate(401,277)" />
<path data-fill-layer-id="vtracer-fill-20-b6db92" d="M0 0c1 0 3 1 4 1 1 3 1 6 1 10-1 1-1 1-3 1-3 0-3 0-4-1 0-7 0-7 2-11Z" fill="#B6DB92" transform="translate(164,130)" />
<path data-fill-layer-id="vtracer-fill-8-b66d6d" d="M0 0c10 2 10 2 14 4 0 1 0 1 0 2-5 1-10 1-15 1 0-2 1-5 1-7Z" fill="#B66D6D" transform="translate(477,309)" />
<path data-fill-layer-id="vtracer-fill-7-92b692" d="M0 0c3 0 7 1 10 1-1 4-2 5-5 8-1-1-3-1-4-2-1-4-1-4-1-7Z" fill="#92B692" transform="translate(222,529)" />
<path data-fill-layer-id="vtracer-fill-8-b66d6d" d="M0 0c0 1 1 2 1 3-2 2-2 2-6 2 0 0 0 0-4 0-2 0-3 0-5 0-1 0-2 0-3 0 3-2 5-3 8-4 1-1 2-1 3-1 3-1 3-1 6 0Z" fill="#B66D6D" transform="translate(395,315)" />
<path data-fill-layer-id="vtracer-fill-7-92b692" d="M0 0c5 0 10 1 14 5 0 3 0 6 0 9 0 0-1 0-1 0 0-3 0-5 0-8-2 0-3 0-5 0 0-1 0-1 0-2-6-1-6-1-9 0 0 1-1 1-1 2 1-5 1-5 2-6Z" fill="#92B692" transform="translate(590,346)" />
<path data-fill-layer-id="vtracer-fill-13-db926d" d="M0 0c4 4 4 5 4 10 0 1 0 2 0 3-1 0-3 0-4 0 0-4 0-9 0-13Z" fill="#DB926D" transform="translate(468,294)" />
<path data-fill-layer-id="vtracer-fill-13-db926d" d="M0 0c1 0 3 1 4 1-3 3-5 6-8 9-1 0-3-1-4-1 3-3 5-6 8-9Z" fill="#DB926D" transform="translate(281,154)" />
<path data-fill-layer-id="vtracer-fill-23-6d9292" d="M0 0c1 0 2 1 3 1 0 4 0 8 0 12-1 0-1 0-2 0 0-4-1-9-1-13Z" fill="#6D9292" transform="translate(260,441)" />
<path data-fill-layer-id="vtracer-fill-13-db926d" d="M0 0c1 0 3 0 4 0 3 6 3 6 3 8-1 0-3-1-4-1-2-4-2-4-3-7Z" fill="#DB926D" transform="translate(461,145)" />
<path data-fill-layer-id="vtracer-fill-7-92b692" d="M0 0c1 0 1 1 2 1-3 2-6 3-10 4 4-5 4-5 8-5Z" fill="#92B692" transform="translate(210.8125,59.1875)" />
<path data-fill-layer-id="vtracer-fill-19-db9292" d="M0 0c0 0 1 0 1 0 0 3 0 3 0 7-2 2-2 2-4 3-1 0-1-1-2-1 1-1 1-2 2-3 2-3 2-3 3-6Z" fill="#DB9292" transform="translate(381,274)" />
<path data-fill-layer-id="vtracer-fill-13-db926d" d="M0 0c2 0 3 0 5 0 1 0 2 0 3 0 2 0 2 0 4 2-5 1-8 1-12-1 0 0 0-1 0-1Z" fill="#DB926D" transform="translate(407,153)" />
</g></svg>